<svg xmlns="http://www.w3.org/2000/svg" xmlns:xlink="http://www.w3.org/1999/xlink" width="500" zoomAndPan="magnify" viewBox="0 0 375 374.999991" height="500" preserveAspectRatio="xMidYMid meet" version="1.0"><defs><g/><clipPath id="53faf2fb25"><path d="M 138.84375 116 L 183 116 L 183 198 L 138.84375 198 Z M 138.84375 116 " clip-rule="nonzero"/></clipPath><clipPath id="04c0d01ae3"><path d="M 192 134 L 236.34375 134 L 236.34375 216 L 192 216 Z M 192 134 " clip-rule="nonzero"/></clipPath><clipPath id="403fd2c6c2"><path d="M 141 181 L 183 181 L 183 240.640625 L 141 240.640625 Z M 141 181 " clip-rule="nonzero"/></clipPath><clipPath id="85f31685d3"><path d="M 192 90.640625 L 234 90.640625 L 234 150 L 192 150 Z M 192 90.640625 " clip-rule="nonzero"/></clipPath></defs><g clip-path="url(#53faf2fb25)"><path fill="#eef1f1" d="M 138.867188 197.046875 L 182.460938 153.453125 L 182.460938 116.148438 L 138.867188 159.738281 Z M 138.867188 197.046875 " fill-opacity="1" fill-rule="nonzero"/></g><g clip-path="url(#04c0d01ae3)"><path fill="#eef1f1" d="M 217.484375 152.886719 L 192.542969 177.828125 L 192.542969 215.132812 L 236.136719 171.539062 L 236.136719 134.234375 Z M 217.484375 152.886719 " fill-opacity="1" fill-rule="nonzero"/></g><g clip-path="url(#403fd2c6c2)"><path fill="#d862b4" d="M 141.835938 200.011719 L 182.460938 240.636719 L 182.460938 203.335938 L 160.488281 181.363281 Z M 141.835938 200.011719 " fill-opacity="1" fill-rule="nonzero"/></g><g clip-path="url(#85f31685d3)"><path fill="#d862b4" d="M 192.546875 90.640625 L 192.546875 127.941406 L 214.519531 149.917969 L 233.171875 131.265625 Z M 192.546875 90.640625 " fill-opacity="1" fill-rule="nonzero"/></g><g fill="#d862b4" fill-opacity="1"><g transform="translate(28.919534, 176.140433)"><g><path d="M 15.5625 0 L 11.59375 -5.734375 L 7.203125 -5.734375 L 7.203125 0 L 2.4375 0 L 2.4375 -20.59375 L 11.359375 -20.59375 C 13.179688 -20.59375 14.765625 -20.285156 16.109375 -19.671875 C 17.453125 -19.066406 18.484375 -18.207031 19.203125 -17.09375 C 19.929688 -15.976562 20.296875 -14.65625 20.296875 -13.125 C 20.296875 -11.59375 19.925781 -10.269531 19.1875 -9.15625 C 18.457031 -8.050781 17.414062 -7.207031 16.0625 -6.625 L 20.6875 0 Z M 15.46875 -13.125 C 15.46875 -14.28125 15.09375 -15.164062 14.34375 -15.78125 C 13.601562 -16.40625 12.519531 -16.71875 11.09375 -16.71875 L 7.203125 -16.71875 L 7.203125 -9.53125 L 11.09375 -9.53125 C 12.519531 -9.53125 13.601562 -9.84375 14.34375 -10.46875 C 15.09375 -11.101562 15.46875 -11.988281 15.46875 -13.125 Z M 15.46875 -13.125 "/></g></g></g><g fill="#d862b4" fill-opacity="1"><g transform="translate(50.097592, 176.140433)"><g><path d="M 16 -4.40625 L 6.4375 -4.40625 L 4.625 0 L -0.265625 0 L 8.921875 -20.59375 L 13.625 -20.59375 L 22.828125 0 L 17.828125 0 Z M 14.5 -8.03125 L 11.234375 -15.921875 L 7.96875 -8.03125 Z M 14.5 -8.03125 "/></g></g></g><g fill="#d862b4" fill-opacity="1"><g transform="translate(72.187493, 176.140433)"><g><path d="M 9.203125 0.359375 C 7.578125 0.359375 6.003906 0.140625 4.484375 -0.296875 C 2.960938 -0.742188 1.742188 -1.320312 0.828125 -2.03125 L 2.4375 -5.625 C 3.320312 -4.976562 4.375 -4.457031 5.59375 -4.0625 C 6.8125 -3.664062 8.023438 -3.46875 9.234375 -3.46875 C 10.585938 -3.46875 11.585938 -3.664062 12.234375 -4.0625 C 12.878906 -4.46875 13.203125 -5.003906 13.203125 -5.671875 C 13.203125 -6.160156 13.007812 -6.566406 12.625 -6.890625 C 12.25 -7.222656 11.757812 -7.484375 11.15625 -7.671875 C 10.5625 -7.867188 9.753906 -8.085938 8.734375 -8.328125 C 7.171875 -8.703125 5.890625 -9.070312 4.890625 -9.4375 C 3.890625 -9.8125 3.03125 -10.410156 2.3125 -11.234375 C 1.59375 -12.054688 1.234375 -13.15625 1.234375 -14.53125 C 1.234375 -15.726562 1.554688 -16.8125 2.203125 -17.78125 C 2.847656 -18.75 3.820312 -19.519531 5.125 -20.09375 C 6.4375 -20.664062 8.035156 -20.953125 9.921875 -20.953125 C 11.234375 -20.953125 12.515625 -20.789062 13.765625 -20.46875 C 15.023438 -20.15625 16.125 -19.707031 17.0625 -19.125 L 15.59375 -15.5 C 13.6875 -16.582031 11.785156 -17.125 9.890625 -17.125 C 8.554688 -17.125 7.566406 -16.90625 6.921875 -16.46875 C 6.285156 -16.039062 5.96875 -15.472656 5.96875 -14.765625 C 5.96875 -14.054688 6.332031 -13.53125 7.0625 -13.1875 C 7.800781 -12.851562 8.925781 -12.519531 10.4375 -12.1875 C 12.007812 -11.8125 13.296875 -11.4375 14.296875 -11.0625 C 15.296875 -10.6875 16.15625 -10.097656 16.875 -9.296875 C 17.59375 -8.492188 17.953125 -7.40625 17.953125 -6.03125 C 17.953125 -4.851562 17.617188 -3.78125 16.953125 -2.8125 C 16.296875 -1.84375 15.3125 -1.070312 14 -0.5 C 12.6875 0.0703125 11.085938 0.359375 9.203125 0.359375 Z M 9.203125 0.359375 "/></g></g></g><g fill="#d862b4" fill-opacity="1"><g transform="translate(90.512404, 176.140433)"><g><path d="M 12.296875 0.359375 C 10.203125 0.359375 8.304688 -0.0976562 6.609375 -1.015625 C 4.910156 -1.929688 3.570312 -3.195312 2.59375 -4.8125 C 1.625 -6.425781 1.140625 -8.253906 1.140625 -10.296875 C 1.140625 -12.335938 1.625 -14.164062 2.59375 -15.78125 C 3.570312 -17.40625 4.910156 -18.671875 6.609375 -19.578125 C 8.304688 -20.492188 10.210938 -20.953125 12.328125 -20.953125 C 14.109375 -20.953125 15.71875 -20.632812 17.15625 -20 C 18.601562 -19.375 19.816406 -18.472656 20.796875 -17.296875 L 17.734375 -14.46875 C 16.347656 -16.082031 14.625 -16.890625 12.5625 -16.890625 C 11.289062 -16.890625 10.15625 -16.609375 9.15625 -16.046875 C 8.15625 -15.492188 7.375 -14.710938 6.8125 -13.703125 C 6.25 -12.703125 5.96875 -11.566406 5.96875 -10.296875 C 5.96875 -9.023438 6.25 -7.890625 6.8125 -6.890625 C 7.375 -5.890625 8.15625 -5.109375 9.15625 -4.546875 C 10.15625 -3.984375 11.289062 -3.703125 12.5625 -3.703125 C 14.625 -3.703125 16.347656 -4.519531 17.734375 -6.15625 L 20.796875 -3.328125 C 19.816406 -2.128906 18.597656 -1.210938 17.140625 -0.578125 C 15.691406 0.046875 14.078125 0.359375 12.296875 0.359375 Z M 12.296875 0.359375 "/></g></g></g><g fill="#d862b4" fill-opacity="1"><g transform="translate(111.631638, 176.140433)"><g><path d="M 21.328125 -20.59375 L 21.328125 0 L 16.5625 0 L 16.5625 -8.4375 L 7.203125 -8.4375 L 7.203125 0 L 2.4375 0 L 2.4375 -20.59375 L 7.203125 -20.59375 L 7.203125 -12.46875 L 16.5625 -12.46875 L 16.5625 -20.59375 Z M 21.328125 -20.59375 "/></g></g></g><g fill="#d862b4" fill-opacity="1"><g transform="translate(134.956922, 176.140433)"><g><path d="M 18.390625 -3.828125 L 18.390625 0 L 2.4375 0 L 2.4375 -20.59375 L 18 -20.59375 L 18 -16.765625 L 7.171875 -16.765625 L 7.171875 -12.296875 L 16.734375 -12.296875 L 16.734375 -8.59375 L 7.171875 -8.59375 L 7.171875 -3.828125 Z M 18.390625 -3.828125 "/></g></g></g><g fill="#d862b4" fill-opacity="1"><g transform="translate(154.252483, 176.140433)"><g><path d="M 2.4375 -20.59375 L 7.203125 -20.59375 L 7.203125 -3.890625 L 17.53125 -3.890625 L 17.53125 0 L 2.4375 0 Z M 2.4375 -20.59375 "/></g></g></g><g fill="#d862b4" fill-opacity="1"><g transform="translate(171.577315, 176.140433)"><g><path d="M 2.4375 -20.59375 L 7.203125 -20.59375 L 7.203125 -3.890625 L 17.53125 -3.890625 L 17.53125 0 L 2.4375 0 Z M 2.4375 -20.59375 "/></g></g></g><g fill="#eef1f1" fill-opacity="1"><g transform="translate(188.903898, 176.140433)"><g/></g></g><g fill="#d862b4" fill-opacity="1"><g transform="translate(197.024995, 176.140433)"><g><path d="M 6.5625 0.40625 C 5.050781 0.40625 3.675781 0.148438 2.4375 -0.359375 C 1.207031 -0.878906 0.195312 -1.632812 -0.59375 -2.625 L 2.59375 -6.390625 C 3.6875 -4.953125 4.875 -4.234375 6.15625 -4.234375 C 7 -4.234375 7.640625 -4.488281 8.078125 -5 C 8.515625 -5.507812 8.734375 -6.253906 8.734375 -7.234375 L 8.734375 -16.09375 L 1.625 -16.09375 L 1.625 -20.59375 L 14.5 -20.59375 L 14.5 -7.59375 C 14.5 -4.925781 13.828125 -2.925781 12.484375 -1.59375 C 11.140625 -0.257812 9.164062 0.40625 6.5625 0.40625 Z M 6.5625 0.40625 "/></g></g></g><g fill="#d862b4" fill-opacity="1"><g transform="translate(212.967371, 176.140433)"><g><path d="M 15.859375 -4 L 7.15625 -4 L 5.53125 0 L -0.40625 0 L 8.671875 -20.59375 L 14.421875 -20.59375 L 23.53125 0 L 17.46875 0 Z M 14.15625 -8.296875 L 11.5 -14.890625 L 8.859375 -8.296875 Z M 14.15625 -8.296875 "/></g></g></g><g fill="#d862b4" fill-opacity="1"><g transform="translate(235.645544, 176.140433)"><g><path d="M 11.0625 -5.46875 L 7.890625 -5.46875 L 7.890625 0 L 2.0625 0 L 2.0625 -20.59375 L 11.46875 -20.59375 C 13.332031 -20.59375 14.953125 -20.28125 16.328125 -19.65625 C 17.703125 -19.039062 18.757812 -18.160156 19.5 -17.015625 C 20.25 -15.867188 20.625 -14.519531 20.625 -12.96875 C 20.625 -11.476562 20.273438 -10.179688 19.578125 -9.078125 C 18.878906 -7.972656 17.882812 -7.101562 16.59375 -6.46875 L 21.03125 0 L 14.796875 0 Z M 14.734375 -12.96875 C 14.734375 -13.9375 14.429688 -14.679688 13.828125 -15.203125 C 13.222656 -15.734375 12.320312 -16 11.125 -16 L 7.890625 -16 L 7.890625 -9.96875 L 11.125 -9.96875 C 12.320312 -9.96875 13.222656 -10.226562 13.828125 -10.75 C 14.429688 -11.269531 14.734375 -12.007812 14.734375 -12.96875 Z M 14.734375 -12.96875 "/></g></g></g><g fill="#d862b4" fill-opacity="1"><g transform="translate(256.970672, 176.140433)"><g><path d="M 24.953125 2.390625 C 24.265625 3.222656 23.425781 3.859375 22.4375 4.296875 C 21.445312 4.742188 20.363281 4.96875 19.1875 4.96875 C 18.039062 4.96875 17.003906 4.820312 16.078125 4.53125 C 15.160156 4.238281 14.238281 3.753906 13.3125 3.078125 C 12.382812 2.398438 11.34375 1.453125 10.1875 0.234375 C 8.394531 -0.0546875 6.800781 -0.691406 5.40625 -1.671875 C 4.019531 -2.648438 2.9375 -3.882812 2.15625 -5.375 C 1.382812 -6.875 1 -8.515625 1 -10.296875 C 1 -12.335938 1.492188 -14.171875 2.484375 -15.796875 C 3.472656 -17.421875 4.832031 -18.691406 6.5625 -19.609375 C 8.300781 -20.535156 10.265625 -21 12.453125 -21 C 14.628906 -21 16.582031 -20.535156 18.3125 -19.609375 C 20.050781 -18.691406 21.414062 -17.421875 22.40625 -15.796875 C 23.394531 -14.171875 23.890625 -12.335938 23.890625 -10.296875 C 23.890625 -7.984375 23.253906 -5.9375 21.984375 -4.15625 C 20.722656 -2.382812 19.023438 -1.117188 16.890625 -0.359375 C 17.273438 0.078125 17.660156 0.382812 18.046875 0.5625 C 18.429688 0.738281 18.847656 0.828125 19.296875 0.828125 C 20.453125 0.828125 21.492188 0.34375 22.421875 -0.625 Z M 6.890625 -10.296875 C 6.890625 -9.140625 7.132812 -8.113281 7.625 -7.21875 C 8.113281 -6.332031 8.78125 -5.640625 9.625 -5.140625 C 10.46875 -4.648438 11.410156 -4.40625 12.453125 -4.40625 C 13.484375 -4.40625 14.421875 -4.648438 15.265625 -5.140625 C 16.109375 -5.640625 16.773438 -6.332031 17.265625 -7.21875 C 17.753906 -8.113281 18 -9.140625 18 -10.296875 C 18 -11.453125 17.753906 -12.472656 17.265625 -13.359375 C 16.773438 -14.253906 16.109375 -14.945312 15.265625 -15.4375 C 14.421875 -15.9375 13.484375 -16.1875 12.453125 -16.1875 C 11.410156 -16.1875 10.46875 -15.9375 9.625 -15.4375 C 8.78125 -14.945312 8.113281 -14.253906 7.625 -13.359375 C 7.132812 -12.472656 6.890625 -11.453125 6.890625 -10.296875 Z M 6.890625 -10.296875 "/></g></g></g><g fill="#d862b4" fill-opacity="1"><g transform="translate(281.413682, 176.140433)"><g><path d="M 11.5625 0.40625 C 8.5 0.40625 6.117188 -0.425781 4.421875 -2.09375 C 2.734375 -3.757812 1.890625 -6.117188 1.890625 -9.171875 L 1.890625 -20.59375 L 7.703125 -20.59375 L 7.703125 -9.359375 C 7.703125 -6.054688 9.007812 -4.40625 11.625 -4.40625 C 14.207031 -4.40625 15.5 -6.054688 15.5 -9.359375 L 15.5 -20.59375 L 21.25 -20.59375 L 21.25 -9.171875 C 21.25 -6.117188 20.398438 -3.757812 18.703125 -2.09375 C 17.003906 -0.425781 14.625 0.40625 11.5625 0.40625 Z M 11.5625 0.40625 "/></g></g></g><g fill="#d862b4" fill-opacity="1"><g transform="translate(304.09186, 176.140433)"><g><path d="M 2.0625 -20.59375 L 7.890625 -20.59375 L 7.890625 0 L 2.0625 0 Z M 6.03125 -26.75 L 11.625 -26.75 L 6.09375 -22.265625 L 2.09375 -22.265625 Z M 6.03125 -26.75 "/></g></g></g><g fill="#d862b4" fill-opacity="1"><g transform="translate(313.621973, 176.140433)"><g><path d="M 21.65625 -20.59375 L 21.65625 0 L 16.859375 0 L 7.765625 -10.96875 L 7.765625 0 L 2.0625 0 L 2.0625 -20.59375 L 6.859375 -20.59375 L 15.953125 -9.625 L 15.953125 -20.59375 Z M 21.65625 -20.59375 "/></g></g></g><g fill="#737373" fill-opacity="1"><g transform="translate(73.368021, 199.659112)"><g><path d="M 8.03125 -6.859375 C 7.6875 -7.234375 7.28125 -7.53125 6.8125 -7.75 C 6.351562 -7.96875 5.890625 -8.078125 5.421875 -8.078125 C 4.796875 -8.078125 4.226562 -7.925781 3.71875 -7.625 C 3.207031 -7.332031 2.800781 -6.925781 2.5 -6.40625 C 2.207031 -5.894531 2.0625 -5.332031 2.0625 -4.71875 C 2.0625 -4.113281 2.210938 -3.550781 2.515625 -3.03125 C 2.816406 -2.519531 3.21875 -2.113281 3.71875 -1.8125 C 4.226562 -1.519531 4.796875 -1.375 5.421875 -1.375 C 5.878906 -1.375 6.335938 -1.472656 6.796875 -1.671875 C 7.265625 -1.867188 7.675781 -2.144531 8.03125 -2.5 L 8.96875 -1.453125 C 8.488281 -0.960938 7.925781 -0.578125 7.28125 -0.296875 C 6.632812 -0.015625 5.984375 0.125 5.328125 0.125 C 4.429688 0.125 3.609375 -0.0859375 2.859375 -0.515625 C 2.117188 -0.953125 1.53125 -1.535156 1.09375 -2.265625 C 0.664062 -2.992188 0.453125 -3.804688 0.453125 -4.703125 C 0.453125 -5.585938 0.664062 -6.394531 1.09375 -7.125 C 1.53125 -7.863281 2.125 -8.441406 2.875 -8.859375 C 3.632812 -9.273438 4.472656 -9.484375 5.390625 -9.484375 C 6.046875 -9.484375 6.6875 -9.351562 7.3125 -9.09375 C 7.945312 -8.832031 8.492188 -8.472656 8.953125 -8.015625 Z M 8.03125 -6.859375 "/></g></g></g><g fill="#737373" fill-opacity="1"><g transform="translate(87.397106, 199.659112)"><g><path d="M 5.421875 -9.484375 C 6.347656 -9.484375 7.191406 -9.273438 7.953125 -8.859375 C 8.710938 -8.441406 9.3125 -7.863281 9.75 -7.125 C 10.1875 -6.394531 10.40625 -5.585938 10.40625 -4.703125 C 10.40625 -3.804688 10.1875 -2.992188 9.75 -2.265625 C 9.3125 -1.535156 8.710938 -0.953125 7.953125 -0.515625 C 7.191406 -0.0859375 6.347656 0.125 5.421875 0.125 C 4.503906 0.125 3.664062 -0.0859375 2.90625 -0.515625 C 2.144531 -0.953125 1.546875 -1.535156 1.109375 -2.265625 C 0.671875 -2.992188 0.453125 -3.804688 0.453125 -4.703125 C 0.453125 -5.585938 0.671875 -6.394531 1.109375 -7.125 C 1.546875 -7.863281 2.144531 -8.441406 2.90625 -8.859375 C 3.664062 -9.273438 4.503906 -9.484375 5.421875 -9.484375 Z M 5.4375 -8.0625 C 4.832031 -8.0625 4.269531 -7.910156 3.75 -7.609375 C 3.226562 -7.304688 2.816406 -6.898438 2.515625 -6.390625 C 2.210938 -5.878906 2.0625 -5.316406 2.0625 -4.703125 C 2.0625 -4.085938 2.210938 -3.519531 2.515625 -3 C 2.828125 -2.476562 3.238281 -2.066406 3.75 -1.765625 C 4.269531 -1.460938 4.832031 -1.3125 5.4375 -1.3125 C 6.050781 -1.3125 6.613281 -1.460938 7.125 -1.765625 C 7.632812 -2.066406 8.035156 -2.476562 8.328125 -3 C 8.628906 -3.519531 8.78125 -4.085938 8.78125 -4.703125 C 8.78125 -5.316406 8.628906 -5.878906 8.328125 -6.390625 C 8.035156 -6.898438 7.632812 -7.304688 7.125 -7.609375 C 6.613281 -7.910156 6.050781 -8.0625 5.4375 -8.0625 Z M 5.4375 -8.0625 "/></g></g></g><g fill="#737373" fill-opacity="1"><g transform="translate(102.939775, 199.659112)"><g><path d="M 1.234375 0 L 1.234375 -9.390625 L 3.0625 -9.390625 L 6.3125 -3.109375 L 9.53125 -9.390625 L 11.375 -9.390625 L 11.375 0 L 9.90625 0 L 9.890625 -7.03125 L 6.8125 -0.984375 L 5.8125 -0.984375 L 2.6875 -7.03125 L 2.6875 0 Z M 1.234375 0 "/></g></g></g><g fill="#737373" fill-opacity="1"><g transform="translate(120.223743, 199.659112)"><g><path d="M 4.96875 -9.390625 C 6.15625 -9.390625 7.070312 -9.109375 7.71875 -8.546875 C 8.363281 -7.984375 8.6875 -7.195312 8.6875 -6.1875 C 8.6875 -5.113281 8.363281 -4.285156 7.71875 -3.703125 C 7.070312 -3.117188 6.15625 -2.828125 4.96875 -2.828125 L 2.8125 -2.828125 L 2.8125 0 L 1.234375 0 L 1.234375 -9.390625 Z M 4.90625 -4.25 C 5.632812 -4.25 6.191406 -4.40625 6.578125 -4.71875 C 6.972656 -5.039062 7.171875 -5.515625 7.171875 -6.140625 C 7.171875 -6.742188 6.972656 -7.195312 6.578125 -7.5 C 6.191406 -7.8125 5.632812 -7.96875 4.90625 -7.96875 L 2.8125 -7.96875 L 2.8125 -4.25 Z M 4.90625 -4.25 "/></g></g></g><g fill="#737373" fill-opacity="1"><g transform="translate(133.931353, 199.659112)"><g><path d="M 2.625 -3.84375 C 2.625 -3.0625 2.847656 -2.441406 3.296875 -1.984375 C 3.742188 -1.535156 4.347656 -1.3125 5.109375 -1.3125 C 5.859375 -1.3125 6.453125 -1.535156 6.890625 -1.984375 C 7.328125 -2.429688 7.546875 -3.050781 7.546875 -3.84375 L 7.546875 -9.390625 L 9.125 -9.390625 L 9.125 -3.84375 C 9.125 -3.03125 8.960938 -2.328125 8.640625 -1.734375 C 8.328125 -1.140625 7.863281 -0.679688 7.25 -0.359375 C 6.644531 -0.0351562 5.929688 0.125 5.109375 0.125 C 4.273438 0.125 3.550781 -0.0351562 2.9375 -0.359375 C 2.332031 -0.679688 1.863281 -1.140625 1.53125 -1.734375 C 1.207031 -2.328125 1.046875 -3.03125 1.046875 -3.84375 L 1.046875 -9.390625 L 2.625 -9.390625 Z M 2.625 -3.84375 "/></g></g></g><g fill="#737373" fill-opacity="1"><g transform="translate(148.790898, 199.659112)"><g><path d="M 0.125 -7.96875 L 0.125 -9.390625 L 7.640625 -9.390625 L 7.640625 -7.96875 L 4.671875 -7.96875 L 4.671875 0 L 3.078125 0 L 3.078125 -7.96875 Z M 0.125 -7.96875 "/></g></g></g><g fill="#737373" fill-opacity="1"><g transform="translate(161.239414, 199.659112)"><g><path d="M 1.234375 0 L 1.234375 -9.390625 L 7.9375 -9.390625 L 7.9375 -7.96875 L 2.8125 -7.96875 L 2.8125 -5.421875 L 7.40625 -5.421875 L 7.40625 -4.015625 L 2.8125 -4.015625 L 2.8125 -1.421875 L 8.09375 -1.421875 L 8.09375 0 Z M 1.234375 0 "/></g></g></g><g fill="#737373" fill-opacity="1"><g transform="translate(174.719318, 199.659112)"><g><path d="M 8.984375 0 L 7.1875 0 L 5.46875 -2.84375 C 5.375 -2.832031 5.234375 -2.828125 5.046875 -2.828125 L 2.8125 -2.828125 L 2.8125 0 L 1.234375 0 L 1.234375 -9.390625 L 5.046875 -9.390625 C 6.242188 -9.390625 7.171875 -9.109375 7.828125 -8.546875 C 8.492188 -7.984375 8.828125 -7.195312 8.828125 -6.1875 C 8.828125 -5.425781 8.65625 -4.785156 8.3125 -4.265625 C 7.976562 -3.753906 7.5 -3.378906 6.875 -3.140625 Z M 2.8125 -4.25 L 5.046875 -4.25 C 5.773438 -4.25 6.332031 -4.40625 6.71875 -4.71875 C 7.113281 -5.039062 7.3125 -5.515625 7.3125 -6.140625 C 7.3125 -6.742188 7.113281 -7.195312 6.71875 -7.5 C 6.332031 -7.8125 5.773438 -7.96875 5.046875 -7.96875 L 2.8125 -7.96875 Z M 2.8125 -4.25 "/></g></g></g><g fill="#737373" fill-opacity="1"><g transform="translate(189.096656, 199.659112)"><g/></g></g><g fill="#737373" fill-opacity="1"><g transform="translate(197.406245, 199.659112)"><g><path d="M 1.234375 0 L 1.234375 -9.390625 L 7.9375 -9.390625 L 7.9375 -7.96875 L 2.8125 -7.96875 L 2.8125 -5.421875 L 7.40625 -5.421875 L 7.40625 -4.015625 L 2.8125 -4.015625 L 2.8125 -1.421875 L 8.09375 -1.421875 L 8.09375 0 Z M 1.234375 0 "/></g></g></g><g fill="#737373" fill-opacity="1"><g transform="translate(210.886148, 199.659112)"><g><path d="M 7.8125 -2.59375 L 7.8125 -9.390625 L 9.375 -9.390625 L 9.375 0 L 7.8125 0 L 2.8125 -6.75 L 2.8125 0 L 1.234375 0 L 1.234375 -9.390625 L 2.78125 -9.390625 Z M 7.8125 -2.59375 "/></g></g></g><g fill="#737373" fill-opacity="1"><g transform="translate(226.187722, 199.659112)"><g><path d="M 7.65625 -4.609375 L 9.03125 -4.609375 L 9.03125 -1.109375 C 8.550781 -0.742188 7.984375 -0.445312 7.328125 -0.21875 C 6.671875 0.0078125 6.023438 0.125 5.390625 0.125 C 4.472656 0.125 3.632812 -0.0859375 2.875 -0.515625 C 2.125 -0.953125 1.53125 -1.535156 1.09375 -2.265625 C 0.664062 -2.992188 0.453125 -3.804688 0.453125 -4.703125 C 0.453125 -5.585938 0.671875 -6.394531 1.109375 -7.125 C 1.554688 -7.863281 2.164062 -8.441406 2.9375 -8.859375 C 3.707031 -9.273438 4.554688 -9.484375 5.484375 -9.484375 C 6.140625 -9.484375 6.785156 -9.363281 7.421875 -9.125 C 8.066406 -8.882812 8.625 -8.5625 9.09375 -8.15625 L 8.1875 -7 C 7.820312 -7.332031 7.398438 -7.59375 6.921875 -7.78125 C 6.453125 -7.976562 5.972656 -8.078125 5.484375 -8.078125 C 4.859375 -8.078125 4.28125 -7.925781 3.75 -7.625 C 3.226562 -7.320312 2.816406 -6.910156 2.515625 -6.390625 C 2.210938 -5.878906 2.0625 -5.316406 2.0625 -4.703125 C 2.0625 -4.078125 2.210938 -3.503906 2.515625 -2.984375 C 2.816406 -2.472656 3.234375 -2.066406 3.765625 -1.765625 C 4.296875 -1.460938 4.875 -1.3125 5.5 -1.3125 C 5.84375 -1.3125 6.203125 -1.367188 6.578125 -1.484375 C 6.953125 -1.597656 7.3125 -1.757812 7.65625 -1.96875 Z M 7.65625 -4.609375 "/></g></g></g><g fill="#737373" fill-opacity="1"><g transform="translate(240.913326, 199.659112)"><g><path d="M 1.234375 0 L 1.234375 -9.390625 L 2.8125 -9.390625 L 2.8125 0 Z M 1.234375 0 "/></g></g></g><g fill="#737373" fill-opacity="1"><g transform="translate(249.651542, 199.659112)"><g><path d="M 7.8125 -2.59375 L 7.8125 -9.390625 L 9.375 -9.390625 L 9.375 0 L 7.8125 0 L 2.8125 -6.75 L 2.8125 0 L 1.234375 0 L 1.234375 -9.390625 L 2.78125 -9.390625 Z M 7.8125 -2.59375 "/></g></g></g><g fill="#737373" fill-opacity="1"><g transform="translate(264.953116, 199.659112)"><g><path d="M 1.234375 0 L 1.234375 -9.390625 L 7.9375 -9.390625 L 7.9375 -7.96875 L 2.8125 -7.96875 L 2.8125 -5.421875 L 7.40625 -5.421875 L 7.40625 -4.015625 L 2.8125 -4.015625 L 2.8125 -1.421875 L 8.09375 -1.421875 L 8.09375 0 Z M 1.234375 0 "/></g></g></g><g fill="#737373" fill-opacity="1"><g transform="translate(278.43302, 199.659112)"><g><path d="M 1.234375 0 L 1.234375 -9.390625 L 7.9375 -9.390625 L 7.9375 -7.96875 L 2.8125 -7.96875 L 2.8125 -5.421875 L 7.40625 -5.421875 L 7.40625 -4.015625 L 2.8125 -4.015625 L 2.8125 -1.421875 L 8.09375 -1.421875 L 8.09375 0 Z M 1.234375 0 "/></g></g></g><g fill="#737373" fill-opacity="1"><g transform="translate(291.912923, 199.659112)"><g><path d="M 8.984375 0 L 7.1875 0 L 5.46875 -2.84375 C 5.375 -2.832031 5.234375 -2.828125 5.046875 -2.828125 L 2.8125 -2.828125 L 2.8125 0 L 1.234375 0 L 1.234375 -9.390625 L 5.046875 -9.390625 C 6.242188 -9.390625 7.171875 -9.109375 7.828125 -8.546875 C 8.492188 -7.984375 8.828125 -7.195312 8.828125 -6.1875 C 8.828125 -5.425781 8.65625 -4.785156 8.3125 -4.265625 C 7.976562 -3.753906 7.5 -3.378906 6.875 -3.140625 Z M 2.8125 -4.25 L 5.046875 -4.25 C 5.773438 -4.25 6.332031 -4.40625 6.71875 -4.71875 C 7.113281 -5.039062 7.3125 -5.515625 7.3125 -6.140625 C 7.3125 -6.742188 7.113281 -7.195312 6.71875 -7.5 C 6.332031 -7.8125 5.773438 -7.96875 5.046875 -7.96875 L 2.8125 -7.96875 Z M 2.8125 -4.25 "/></g></g></g></svg>